<?xml version="1.0" encoding="UTF-8"?>
<svg width="32" height="32" viewBox="0 0 32 32" fill="none" xmlns="http://www.w3.org/2000/svg">
  <!-- Background -->
  <rect width="32" height="32" rx="8" fill="#1976d2"/>
  
  <!-- Microphone Icon -->
  <path d="M16 8C14.3431 8 13 9.34315 13 11V17C13 18.6569 14.3431 20 16 20C17.6569 20 19 18.6569 19 17V11C19 9.34315 17.6569 8 16 8Z" 
    fill="white"/>
  
  <!-- Stand -->
  <path d="M16 20V23" stroke="white" stroke-width="2" stroke-linecap="round"/>
  <path d="M12 23H20" stroke="white" stroke-width="2" stroke-linecap="round"/>
  
  <!-- Sound Waves -->
  <g opacity="0.8">
    <path d="M11 15V17C11 19.7614 13.2386 22 16 22C18.7614 22 21 19.7614 21 17V15" 
      stroke="white" 
      stroke-width="1.5" 
      stroke-linecap="round"/>
    <path d="M9 14V17C9 20.866 12.134 24 16 24C19.866 24 23 20.866 23 17V14" 
      stroke="white" 
      stroke-width="1.5" 
      stroke-linecap="round"
      opacity="0.6"/>
  </g>
  
  <!-- Animation -->
  <circle cx="16" cy="16" r="14" stroke="white" stroke-width="1" opacity="0.2">
    <animate attributeName="r" values="14;15;14" dur="2s" repeatCount="indefinite"/>
    <animate attributeName="opacity" values="0.2;0.1;0.2" dur="2s" repeatCount="indefinite"/>
  </circle>
</svg> 